# xmcd
#
# Track frame offsets:
# 150
# 13997
# 29182
# 44476
# 63126
# 82059
# 98820
# 116921
# 129639
# 147258
# 171660
# 187869
# 209192
# 223351
# 239649
# 258451
# 274796
# 292379
# 307151
# 325687
#
# Disc length: 4536 seconds
#
#
# Revision: 0
# Processed by: cddbd v1.5.2PL0 Copyright (c) Steve Scherf et al.
# Submitted via: FreeRIP 2.951 
#
DISCID=5911b614
DTITLE=João Paulo e Daniel - Saudades
DYEAR=1995
DGENRE=Alternative
TTITLE0=Só dá vc na minha vida
TTITLE1=Eu me amarrei
TTITLE2=Alguém
TTITLE3=Ela tem o dom de me fazer chorar
TTITLE4=Minha estrela Perdida
TTITLE5=Olhos claros
TTITLE6=Dia de visita
TTITLE7=O cheiro dela
TTITLE8=Hoje eu sei
TTITLE9=Eu te amo cada vez mais
TTITLE10=Frente à frente
TTITLE11=Estou apaixonado
TTITLE12=Você só me faz feliz
TTITLE13=Rosto molhado
TTITLE14=Com qual carícias
TTITLE15=A Loira do carro branco
TTITLE16=Tô ficando louco
TTITLE17=Tá faltando amor
TTITLE18=Te cuida coração
TTITLE19=Fogo de Amor
EXTD=O melhor de:
EXTT0=
EXTT1=
EXTT2=
EXTT3=
EXTT4=
EXTT5=
EXTT6=
EXTT7=
EXTT8=
EXTT9=
EXTT10=
EXTT11=
EXTT12=
EXTT13=
EXTT14=
EXTT15=
EXTT16=
EXTT17=
EXTT18=
EXTT19=
PLAYORDER=
